<svg xmlns="http://www.w3.org/2000/svg" viewBox="0 0 16 16"><path fill="#52c1db" d="M13.46 4.4a6 6 0 0 0-1.53-1.5l-.5.72a5 5 0 0 0-.81-.46l-.38.8a4 4 0 0 1 1.26.88l-.62.63-.63.63a3 3 0 0 1 .53.74l1.61-.75.8-.37.81-.38a6 6 0 0 0-.54-.93M14.9 3.4A8 8 0 0 0 9.07.03L9 .92q.62.05 1.21.2L9.98 2A6.2 6.2 0 0 1 14 5.34l.8-.38.81-.37q-.3-.63-.7-1.2M11 2.35A6.2 6.2 0 0 0 6.78 2l.23.85q-.46.12-.87.32l.38.8a4.4 4.4 0 0 1 3.72 0l.38-.8q.42.2.8.46l.51-.73q-.44-.3-.94-.54M9 .92l.08-.89a8 8 0 0 0-5.26 1.4q-.58.4-1.06.9l.62.62q.44-.43.95-.79l.51.73A6.2 6.2 0 0 1 9.98 2l.23-.86Q9.61.97 9 .92M7.02 2.84 6.78 2A6.2 6.2 0 0 0 3.3 4.4l.73.5q-.27.4-.47.8l.8.38a4.4 4.4 0 0 1 2.16-2.13l-.38-.8q.42-.2.87-.32m-2.69-.68q-.5.36-.95.8l-.62-.63A8 8 0 0 0 .42 7.27l.89.08q.04-.63.22-1.22l.85.23a6.2 6.2 0 0 1 2.45-3.47zM2.73 10.6a6.2 6.2 0 0 1-.35-4.24l-.85-.23q-.17.59-.22 1.22l-.89-.08a8 8 0 0 0 .7 4.08 8 8 0 0 0 .7 1.22l.72-.51q-.35-.51-.61-1.08zm1.22-2.25a4.5 4.5 0 0 1 .42-2.26l-.8-.37q.2-.42.46-.8L3.3 4.4a6.2 6.2 0 0 0-.93 5.17l.85-.23q.12.46.32.88l.8-.38a4 4 0 0 1-.39-1.5m1.79 5.28a6.2 6.2 0 0 1-3-3.03l-.81.38q.26.57.61 1.08l-.72.5a8 8 0 0 0 3.17 2.69l.37-.81q.57.27 1.17.43l.23-.86q-.53-.14-1.02-.38m.75-1.6a4.4 4.4 0 0 1-2.15-2.18l-.8.38a5 5 0 0 1-.32-.88l-.85.23a6.2 6.2 0 0 0 2.43 3.5l.5-.72a5 5 0 0 0 1.7.8l.22-.87q-.38-.1-.73-.27m5.98 1.78a7 7 0 0 1-2.24 1.06L10 14a6 6 0 0 1-3.24 0l-.23.86q-.6-.16-1.17-.43l-.37.8a8 8 0 0 0 8-.7zm1.75-1.75-.73-.51A6.3 6.3 0 0 1 9.99 14l.24.86a7 7 0 0 0 2.24-1.06l.51.73a8 8 0 0 0 1.96-1.97zm-1.46-1.02-.72-.51a5 5 0 0 1-1.1 1.1l.51.73q-.38.27-.8.47l.37.8a6 6 0 0 0 2.47-2.08zm-1.3 1.32-.52-.73a4.4 4.4 0 0 1-3.72.66l-.23.86a5 5 0 0 1-1.68-.8l-.51.74a6.2 6.2 0 0 0 6.22.54l-.37-.8q.42-.2.8-.47"/><path fill="#40ffff" d="M13.46 4.4a6 6 0 0 0-1.53-1.5l-.5.72a5 5 0 0 0-.81-.46l-.38.8a4 4 0 0 1 1.26.88l-.62.63-.63.63a3 3 0 0 1 .53.74l1.61-.75.8-.37.81-.38a6 6 0 0 0-.54-.93"/><path fill="#6060ff" d="M14.91 3.39A8 8 0 0 0 9.07.03L9 .92q.62.05 1.21.2L9.98 2A6.2 6.2 0 0 1 14 5.34l.8-.38.81-.37q-.3-.63-.7-1.2"/><path fill="#40ffff" d="M7.01 2.84 6.78 2A6.2 6.2 0 0 0 3.3 4.4l.73.5q-.27.4-.47.8l.8.38a4.4 4.4 0 0 1 2.16-2.13l-.38-.8q.42-.2.87-.32"/><path fill="#6060ff" d="M3.95 8.35a4.5 4.5 0 0 1 .42-2.26l-.8-.37q.2-.42.46-.8L3.3 4.4a6.2 6.2 0 0 0-.93 5.17l.85-.23q.12.46.32.88l.8-.38a4 4 0 0 1-.39-1.5"/><path fill="#40ffff" d="M5.74 13.63a6.2 6.2 0 0 1-3-3.03l-.81.38q.26.57.61 1.08l-.72.5a8 8 0 0 0 3.17 2.69l.37-.81q.57.27 1.17.43l.23-.86q-.53-.14-1.02-.38"/><path fill="#6060ff" d="M12.47 13.81a7 7 0 0 1-2.24 1.06L10 14a6 6 0 0 1-3.24 0l-.23.86q-.6-.16-1.17-.43l-.37.8a8 8 0 0 0 8-.7z"/><path fill="#40ffff" d="m12.76 11.04-.72-.51a5 5 0 0 1-1.1 1.1l.51.73q-.38.27-.8.47l.37.8a6 6 0 0 0 2.47-2.08z"/><path fill="#40a0ff" d="m14.22 12.06-.73-.51a6 6 0 0 1-2.47 2.08l-.37-.8q.42-.2.8-.47l-.5-.73a4.42 4.42 0 0 1-6.6-1.78l-.81.38a5 5 0 0 1-.32-.88l-.85.23A6.2 6.2 0 0 1 3.3 4.4a6.3 6.3 0 0 1 3.48-2.42l.23.85q-.46.12-.87.32l.38.8a4.4 4.4 0 0 1 3.72 0l.38-.8q.42.2.8.46l.51-.73a6 6 0 0 0-1.95-.9l.23-.86Q9.61.97 9 .92l.07-.89a8 8 0 0 0-5.26 1.4 8.04 8.04 0 0 0-2.69 9.92 8 8 0 0 0 .7 1.22l.72-.51a7 7 0 0 1-.61-1.08l.8-.38A6.2 6.2 0 0 0 10 14l.23.87a7 7 0 0 0 2.24-1.06l.51.73a8 8 0 0 0 1.96-1.97z"/></svg>