<svg xmlns="http://www.w3.org/2000/svg" viewBox="0 0 16 16"><path fill="#40a0ff" d="M12.24 7.26a1 1 0 0 0 0-1.4l-4.6-4.6a2 2 0 0 0-2.82 0L.58 5.5a2 2 0 0 0 0 2.82l.36.36a1 1 0 0 0 1.41 0l4.6-4.61c.2-.2.52-.2.72 0l3.15 3.2a1 1 0 0 0 1.42 0"/><path fill="#40a0ff" d="m15.42 5.5-4.24-4.24a2 2 0 0 0-2.42-.3l4.18 4.19a2 2 0 0 1-2.82 2.82L7.65 5.5a.5.5 0 0 0-.7 0l-3.9 3.88c-.38.4-.38 1.03 0 1.42s1.03.38 1.42 0L8 7.26l.7.71-3.52 3.53c-.4.39-.4 1.03 0 1.41s1.02.4 1.4 0l3.54-3.53.7.7-3.53 3.54a1 1 0 1 0 1.42 1.41l6.7-6.7a2 2 0 0 0 0-2.83"/></svg>