<svg xmlns="http://www.w3.org/2000/svg" viewBox="0 0 16 16"><path fill="#6060ff" d="M5 14.13c0-.51.24-.96.6-1.26q-.35-.29-.5-.73l-.73-.2-.24-2.77h1.43l.04-.04q-.4-.33-.54-.85H4.05l-.16-1.76h1.12C5.07 5.67 5.77 5 6.63 5h1.25c.5 0 .95.24 1.25.6.3-.36.74-.6 1.25-.6h.08l.02-.29H3.73l-.16-1.77h8.85l-.2 2.19q.39.15.66.47c.3-.36.74-.6 1.25-.6h.48l.44-5H.95l1.28 14.4 2.77.77z"/><rect width="2.5" height="2.5" x="6" y="6" fill="#6060ff" rx=".63" ry=".63"/><rect width="2.5" height="2.5" x="6" y="6" fill="#6060ff" rx=".63" ry=".63"/><rect width="2.5" height="2.5" x="6" y="9.75" fill="#6060ff" rx=".63" ry=".63"/><rect width="2.5" height="2.5" x="6" y="13.5" fill="#6060ff" rx=".63" ry=".63"/><rect width="2.5" height="2.5" x="13.5" y="6" fill="#6060ff" rx=".63" ry=".63"/><rect width="2.5" height="2.5" x="13.5" y="6" fill="#6060ff" rx=".63" ry=".63"/><rect width="2.5" height="2.5" x="13.5" y="9.75" fill="#6060ff" rx=".63" ry=".63"/><rect width="2.5" height="2.5" x="13.5" y="13.5" fill="#6060ff" rx=".63" ry=".63"/><rect width="2.5" height="2.5" x="9.75" y="6" fill="#6060ff" rx=".63" ry=".63"/><rect width="2.5" height="2.5" x="9.75" y="6" fill="#6060ff" rx=".63" ry=".63"/><rect width="2.5" height="2.5" x="9.75" y="9.75" fill="#6060ff" rx=".63" ry=".63"/><rect width="2.5" height="2.5" x="9.75" y="13.5" fill="#6060ff" rx=".63" ry=".63"/></svg>