<svg xmlns="http://www.w3.org/2000/svg" viewBox="0 0 16 16"><path fill="#a040ff" fill-rule="evenodd" d="M5 14.13c0-.51.24-.96.6-1.26-.36-.3-.6-.74-.6-1.24v-1.26c0-.5.24-.95.6-1.24-.36-.3-.6-.75-.6-1.26V6.63C5 5.73 5.73 5 6.63 5h1.25c.5 0 .95.24 1.25.6q.32-.38.8-.53a7 7 0 0 1-1.37-3.72L8.46 0Q7.36.46 6.6 1.35c-1 1.1-1.6 2.4-2.3 3.7-1.2 2.5-2.25 5.5-.85 8.1Q4 14.33 5 15.03z"/><rect width="2.5" height="2.5" x="6" y="6" fill="#a040ff" rx=".63" ry=".63"/><rect width="2.5" height="2.5" x="6" y="6" fill="#a040ff" rx=".63" ry=".63"/><rect width="2.5" height="2.5" x="6" y="9.75" fill="#a040ff" rx=".63" ry=".63"/><rect width="2.5" height="2.5" x="6" y="13.5" fill="#a040ff" rx=".63" ry=".63"/><rect width="2.5" height="2.5" x="13.5" y="6" fill="#a040ff" rx=".63" ry=".63"/><rect width="2.5" height="2.5" x="13.5" y="6" fill="#a040ff" rx=".63" ry=".63"/><rect width="2.5" height="2.5" x="13.5" y="9.75" fill="#a040ff" rx=".63" ry=".63"/><rect width="2.5" height="2.5" x="13.5" y="13.5" fill="#a040ff" rx=".63" ry=".63"/><rect width="2.5" height="2.5" x="9.75" y="6" fill="#a040ff" rx=".63" ry=".63"/><rect width="2.5" height="2.5" x="9.75" y="6" fill="#a040ff" rx=".63" ry=".63"/><rect width="2.5" height="2.5" x="9.75" y="9.75" fill="#a040ff" rx=".63" ry=".63"/><rect width="2.5" height="2.5" x="9.75" y="13.5" fill="#a040ff" rx=".63" ry=".63"/></svg>