<svg xmlns="http://www.w3.org/2000/svg" viewBox="0 0 16 16"><path fill="#40ffa0" d="M15 3H8L6.59 1.59A2 2 0 0 0 5.17 1H2a2 2 0 0 0-2 2v10c0 1.1.9 2 2 2h3v-2.75c0-.5.24-.95.6-1.25-.36-.3-.6-.74-.6-1.25V7.07a2 2 0 0 0-1.46 1.3L2 13V7c0-1.1.9-2 2-2h11c.55 0 1-.45 1-1s-.45-1-1-1"/><rect width="4.38" height="4.38" x="6" y="11.63" fill="#40ffa0" rx=".63" ry=".63"/><rect width="4.38" height="4.38" x="6" y="6" fill="#40ffa0" rx=".63" ry=".63"/><path fill="#40ffa0" d="m13.88 9.73.98.52c.2.1.45-.07.4-.3l-.18-1.1q-.01-.06.04-.11l.8-.78a.28.28 0 0 0-.16-.48l-1.1-.16a.1.1 0 0 1-.1-.07l-.5-1c-.1-.2-.4-.2-.5 0l-.49 1a.1.1 0 0 1-.1.07l-1.1.16a.28.28 0 0 0-.16.48l.8.77q.04.06.04.13l-.2 1.1c-.03.22.2.4.41.29l.99-.52a.1.1 0 0 1 .13 0"/><rect width="4.38" height="4.38" x="11.63" y="11.63" fill="#40ffa0" rx=".63" ry=".63"/></svg>