<svg xmlns="http://www.w3.org/2000/svg" viewBox="0 0 16 16"><path fill="#ff40a0" d="M5 14.13q0-.54.3-.94A1.6 1.6 0 0 1 5.6 11c-.36-.3-.6-.74-.6-1.25V8.5q0-.53.3-.94-.15-.23-.23-.5c-.7.13-1.3.61-1.53 1.3L2 13V7c0-1.1.9-2 2-2h11c.55 0 1-.45 1-1s-.45-1-1-1H8L6.59 1.59A2 2 0 0 0 5.17 1H2a2 2 0 0 0-2 2v10c0 1.1.9 2 2 2h3z"/><path fill="#ff40a0" d="M9.75 6.63c0 .34-.28.62-.62.62h-2.5A.63.63 0 0 1 6 6.63c0-.35.28-.63.63-.63h2.5c.34 0 .62.28.62.63"/><rect width="10" height="2.5" x="6" y="7.88" fill="#ff40a0" rx=".63" ry=".63"/><path fill="#ff40a0" d="M9.75 12.25c0 .34-.28.63-.62.63h-2.5a.63.63 0 0 1-.63-.63c0-.34.28-.62.63-.62h2.5c.34 0 .62.28.62.62"/><rect width="10" height="2.5" x="6" y="13.5" fill="#ff40a0" rx=".63" ry=".63"/></svg>