<svg xmlns="http://www.w3.org/2000/svg" viewBox="0 0 16 16"><path fill="#ffff40" d="M15.65 4.33c-.12-.66-.34-1.66-.47-2.46-.15.76-.26 1.53-.42 2.28-.11 0-.1.1-.06.17z"/><path fill="#ffff40" d="M1.4 4.3q0-.08-.03-.14h-.1c-.12-.65-.22-1.59-.42-2.23-.2.75-.13 1.64-.5 2.3l.03.1q.51 0 1.02-.03"/><path fill="#ffff40" d="m16 14.12-.29-2.59.13-.07v-.15l-.17-.06V6.81a.6.6 0 0 0 .16-.52c-.06-.05-.16-.02-.23-.03V4.34h-.88v1.9l-.25.01c.2.22.18 4.56.16 4.98l-.17.11q.02.15.16.18-.1.7-.15 1.4l-.18.02v-1.42l-.48-.01c-.01-.37 0-3 .11-3.29h-.16V6.9c.06-.02.05-.08.06-.14-.3-.46-.23-1.17-.4-1.72-.09.56-.21 1.1-.28 1.67l-.12.08c.15.07.06 1.3.08 1.44l-.18.01q-.03.23.1.42v1.89h-.5l-.02-.25h-.32v-.8h.1v-.1h-.1v-.9h-.6c-.02-.05 0-.1-.04-.13h-.2a3.6 3.6 0 0 0-2.96-1.9c.06-.2-.1-.33-.15-.5.08-.09-.01-.2-.03-.31q.04-.08 0-.14l-.01-.17-.07.22c.07.15-.1.29 0 .42l-.15.25v.23a3.5 3.5 0 0 0-2.96 1.9c-.12 0-.26-.04-.24.12h-.61l-.02.9a.2.2 0 0 0-.1.08l.1.01v.8h-.3l-.02.25h-.85c.01-.78-.06-1.56.11-2.3l-.16-.01V6.85a.2.2 0 0 0 .08-.1l-.09-.07c-.12-.51-.18-1.04-.29-1.56l-.04-.05-.29 1.63-.1.02c.12.16.05 1.31.07 1.5l-.18.02c.12.27.12 2.9.1 3.28H1.7v1.42h-.14l-.15-1.42.1-.02.04-.12a.3.3 0 0 0-.16-.13c0-.43-.05-4.72.15-4.98H1.3v-1.9H.4v1.88H.17c.2.23.17 4.57.16 5l-.14.02a.3.3 0 0 0 0 .21l.12.03c-.12.87-.18 1.74-.3 2.6zm-10.5-.29h-.12V10.3h.11zm.67-.5h-.36v-.61c.03-.13.15-.16.26-.15.2.18.07.5.1.75m1.44 0h-.4v-.58c.35-.55.48.27.4.58m0-1.25h-.39v-.57c.31-.57.48.28.4.57m.71 1.25h-.4v-.62h.01l.12-.14.21.03c.1.11.05.59.06.73m.39-1.97a.4.4 0 0 1 .2-.03c.19.2.1.5.11.75h-.4c.01-.24-.05-.51.1-.72zm.31 1.96h-.4c.02-.15-.05-.6.1-.71q.08-.04.19-.04c.2.2.09.51.11.75m1.03 0v-.58c.05-.2.28-.2.39-.05q.03.3 0 .64zm.88.53c-.2 0 0-3.37-.07-3.45a.1.1 0 0 1 .07-.12c.03 1.18 0 2.38 0 3.57m.6-5.21c.19-.16.3.15.25.3a.5.5 0 0 0-.34.1c0-.14-.04-.31.1-.4m-.24.7h-.25v-.61c.37-.43.42.39.25.62m-.66-.58c.33-.52.38.34.33.59h-.34q-.03-.3.01-.6m-.4-.12c.43-.21.3.47.31.7h-.34q-.03-.34.04-.7m-.12.7h-.35V8.8c.22-.56.42.07.35.55m-.39 3.99h-.36v-.59q.02-.1.1-.17c.41-.03.22.5.26.76m-.43-4.56c.36-.54.43.3.38.57h-.39zm-.46-.02q.06-.1.19-.17c.33.09.15.51.2.77h-.4zm-.46 0c0-.09.1-.12.18-.16.34.08.17.5.2.76h-.4zm-.48.04c.32-.56.5.26.41.56h-.42zm-.05 2.45c.44-.95.68.4.57.84h-.57zM7.5 8.66l.13-.05.15.04c.1.07.04.6.06.7h-.39q-.03-.34.05-.69m-.49.05c.43-.35.38.4.37.65h-.4q-.01-.33.03-.65m-.07 4.62h-.39v-.58c0-.07.06-.12.1-.17.43-.04.25.49.29.75m-.4-4.59c.4-.46.41.38.38.62h-.38zm-.44.07c0-.25.28-.25.37-.06v.6H6.1zm-.43-.04c0-.1.1-.14.18-.18.3.14.14.51.18.77h-.37zm-.37-.13c.42-.18.27.53.3.72h-.4c.02-.14-.04-.61.06-.72m-.36-.02c.37-.06.2.52.23.74h-.1a.5.5 0 0 0-.25-.37c.01-.13-.03-.3.12-.37m-.43.01c.08-.06.17 0 .23.06q.02.13.01.26l-.33.02c0-.11-.03-.27.1-.34"/></svg>