<svg xmlns="http://www.w3.org/2000/svg" viewBox="0 0 16 16"><path fill="#ffff40" d="M5.6 12.88c-.36-.3-.6-.75-.6-1.26v-1.24c0-.51.24-.96.6-1.26-.36-.3-.6-.74-.6-1.24V6.63C5 5.73 5.73 5 6.63 5h.2V2.45H4.55v7.76c0 1.14-.48 1.43-1.22 1.43-.79 0-1.11-.54-1.47-1.17L0 11.59a3.5 3.5 0 0 0 3.42 2.09q1.06 0 1.84-.41.14-.22.34-.4"/><path fill="#ffff40" d="M9.13 5.6c.3-.36.74-.6 1.24-.6h.68c.12-.4.5-.69 1.04-.69.6 0 1 .25 1.37.84q.24-.1.51-.13l1.36-.87c-.75-1.33-1.8-1.83-3.24-1.83-2.02 0-3.3 1.27-3.34 2.95q.21.14.38.33"/><rect width="2.5" height="2.5" x="6" y="6" fill="#ffff40" rx=".63" ry=".63"/><rect width="2.5" height="2.5" x="6" y="6" fill="#ffff40" rx=".63" ry=".63"/><rect width="2.5" height="2.5" x="6" y="9.75" fill="#ffff40" rx=".63" ry=".63"/><rect width="2.5" height="2.5" x="6" y="13.5" fill="#ffff40" rx=".63" ry=".63"/><rect width="2.5" height="2.5" x="13.5" y="6" fill="#ffff40" rx=".63" ry=".63"/><rect width="2.5" height="2.5" x="13.5" y="6" fill="#ffff40" rx=".63" ry=".63"/><rect width="2.5" height="2.5" x="13.5" y="9.75" fill="#ffff40" rx=".63" ry=".63"/><rect width="2.5" height="2.5" x="13.5" y="13.5" fill="#ffff40" rx=".63" ry=".63"/><rect width="2.5" height="2.5" x="9.75" y="6" fill="#ffff40" rx=".63" ry=".63"/><rect width="2.5" height="2.5" x="9.75" y="6" fill="#ffff40" rx=".63" ry=".63"/><rect width="2.5" height="2.5" x="9.75" y="9.75" fill="#ffff40" rx=".63" ry=".63"/><rect width="2.5" height="2.5" x="9.75" y="13.5" fill="#ffff40" rx=".63" ry=".63"/></svg>