<svg xmlns="http://www.w3.org/2000/svg" viewBox="0 0 16 16"><path fill="#e0e0e0" fill-rule="evenodd" d="M4.5 9.2c0-4.14 1.35-5.8 3.5-5.04 0 0 .73.3 1.37 1.06q.36-.21.81-.22h1.88c.87 0 1.59.7 1.62 1.56q.56-.29 1.18-.13l.11.04C14.72 2.32 10.42.01 8 .01c-4.1 0-8 3.4-8 8C0 13.15 4.5 16 8 16c-.8-.1-3.5-.7-3.5-6.8"/><path fill="#a0a0a0" d="m15.69 11.83-.9-.52c-.3-.17-.3-.45 0-.62l.9-.52c.3-.18.4-.56.23-.86l-.94-1.62a.63.63 0 0 0-.85-.23l-.9.52c-.3.17-.55.03-.55-.31V6.63a.63.63 0 0 0-.62-.63h-1.88a.63.63 0 0 0-.62.63v1.04c0 .34-.25.48-.55.31l-.9-.52a.63.63 0 0 0-.85.23L6.32 9.3c-.17.3-.07.68.23.86l.9.52c.3.17.3.45 0 .62l-.9.52c-.3.18-.4.56-.23.86l.94 1.62c.17.3.55.4.85.23l.9-.52c.3-.17.55-.03.55.31v1.05c0 .34.28.62.62.62h1.88c.34 0 .62-.28.62-.62v-1.05c0-.34.24-.48.54-.31l.9.52c.3.17.69.07.86-.23l.94-1.62a.63.63 0 0 0-.23-.86m-3.8.52a1.56 1.56 0 1 1-1.55-2.7 1.56 1.56 0 0 1 1.56 2.7"/><g fill="#a0a0a0"><path d="M13.14 5.42c.31.29.52.69.54 1.14a1.6 1.6 0 0 1 1.18-.13q.65.18.99.76l.11.2C15.64 2.91 11.84.33 8.6.04c1.35.23 3.99 1.53 4.54 5.38M8.56 15.44c-.77.4-1.73.13-2.17-.63l-.94-1.62A1.6 1.6 0 0 1 6 11a1.6 1.6 0 0 1-.54-2.19l.24-.4-.04-.4C5.65 5 8 4.2 8 4.2v-.05c-2.35-.8-5.2 1.1-5.2 5C2.8 15.45 7.45 16 8 16q.34 0 .67-.03a2 2 0 0 1-.11-.53"/></g></svg>