<svg xmlns="http://www.w3.org/2000/svg" viewBox="0 0 16 16"><path fill="#e0e0e0" d="M14 3H8L6.59 1.59A2 2 0 0 0 5.17 1H2a2 2 0 0 0-2 2v10c0 1.1.9 2 2 2h2.37c.15-.76.83-1.33 1.63-1.33h2.2l-2.05-2.05a1.66 1.66 0 0 1 0-2.36l.48-.47q.41-.4.94-.47.08-.55.47-.95.4-.38.95-.45.06-.55.46-.96l.47-.47a1.67 1.67 0 0 1 2.36 0l2.23 2.23a1.66 1.66 0 0 1 0 2.36l-.47.47q-.12.12-.26.2L16 12.99V5a2 2 0 0 0-2-2"/><path fill="#e0e0e0" d="M12 15.33c0 .37-.3.67-.67.67H6a.67.67 0 0 1-.67-.67c0-.36.3-.66.67-.66h5.33c.37 0 .67.3.67.66"/><path fill="#e0e0e0" d="M15.8 14.2 9.7 8.08a.66.66 0 1 0-.94.94l6.11 6.12a.67.67 0 1 0 .94-.94"/><rect width="2" height="4.49" x="7.68" y="9.07" fill="#e0e0e0" rx=".67" ry=".67" transform="rotate(-45 8.68 11.32)"/><rect width="2" height="4.49" x="10.98" y="5.77" fill="#e0e0e0" rx=".67" ry=".67" transform="rotate(-45 11.98 8.02)"/></svg>