<svg xmlns="http://www.w3.org/2000/svg" viewBox="0 0 16 16"><path fill="#6060ff" fill-rule="evenodd" d="M8.5 3.64H6.38L4.9 1.06h-.91l-.44.77 1.03 1.81H2.49L1.61 5.2h7.8z"/><path fill="#40a0ff" fill-rule="evenodd" d="M4.5 5.39 3.43 7.23.46 7.22 0 8.01l.45.77 2.09.01-1.06 1.81.91 1.54 3.9-6.75z"/><path fill="#40a0ff" fill-rule="evenodd" d="m11.37 5.13-.4-.7 1.49-2.57-.46-.79h-.89l-1.05 1.8-1.04-1.81-1.79.02L10 5.85q.6-.52 1.38-.72"/><path fill="#a0a0a0" d="M14.75 9.75V8.5a2.5 2.5 0 0 0-5 0v1.25c-.69 0-1.25.56-1.25 1.25v3.75c0 .69.56 1.25 1.25 1.25h5c.69 0 1.25-.56 1.25-1.25V11c0-.69-.56-1.25-1.25-1.25m-2.5 4.06a.94.94 0 1 1 0-1.87.94.94 0 0 1 0 1.87m1.25-4.06H11V8.5a1.25 1.25 0 0 1 2.5 0z"/><path fill="#40a0ff" fill-rule="evenodd" d="m7.5 11 .03-.22H6.6l.9 1.56h.01z"/><path fill="#6060ff" fill-rule="evenodd" d="m15.74 8.43.26-.45-.44-.77h-.06q.22.57.24 1.22"/><path fill="#6060ff" fill-rule="evenodd" d="m14.34 5.7.18-.3-.91-1.54-.7 1.2q.8.17 1.43.65"/><path fill="#6060ff" fill-rule="evenodd" d="M7.5 14.75V12.7L4.89 8.17l-.9 1.56 1.06 1.84-1.5 2.57.46.79h.9l1.04-1.8L7 14.92h.54z"/></svg>