<svg xmlns="http://www.w3.org/2000/svg" viewBox="0 0 16 16"><path fill="#ff4040" fill-rule="evenodd" d="M5.6 12.88c-.36-.3-.6-.75-.6-1.26v-1.24c0-.51.24-.96.6-1.26-.36-.3-.6-.74-.6-1.24V6.63C5 5.73 5.73 5 6.63 5h1.25c.5 0 .95.24 1.25.6.3-.36.74-.6 1.24-.6h1.26c.49 0 .92.23 1.22.58h.04q.3-.34.72-.48c-1.42-.92-3.34-1.76-5.36-1.55-2.06.2-4.59 2.2-6.07 4.83S.49 13.24.49 13.24h4.8q.12-.2.3-.37"/><rect width="2.5" height="2.5" x="6" y="6" fill="#ff4040" rx=".63" ry=".63"/><rect width="2.5" height="2.5" x="6" y="6" fill="#ff4040" rx=".63" ry=".63"/><rect width="2.5" height="2.5" x="6" y="9.75" fill="#ff4040" rx=".63" ry=".63"/><rect width="2.5" height="2.5" x="6" y="13.5" fill="#ff4040" rx=".63" ry=".63"/><rect width="2.5" height="2.5" x="13.5" y="6" fill="#ff4040" rx=".63" ry=".63"/><rect width="2.5" height="2.5" x="13.5" y="6" fill="#ff4040" rx=".63" ry=".63"/><rect width="2.5" height="2.5" x="13.5" y="9.75" fill="#ff4040" rx=".63" ry=".63"/><rect width="2.5" height="2.5" x="13.5" y="13.5" fill="#ff4040" rx=".63" ry=".63"/><rect width="2.5" height="2.5" x="9.75" y="6" fill="#ff4040" rx=".63" ry=".63"/><rect width="2.5" height="2.5" x="9.75" y="6" fill="#ff4040" rx=".63" ry=".63"/><rect width="2.5" height="2.5" x="9.75" y="9.75" fill="#ff4040" rx=".63" ry=".63"/><rect width="2.5" height="2.5" x="9.75" y="13.5" fill="#ff4040" rx=".63" ry=".63"/><path fill="#ff4040" fill-rule="evenodd" d="m12.1 3.97.03-.5a3 3 0 0 0-.68-.26l-.03.5z"/><path fill="#ff4040" fill-rule="evenodd" d="M8.83 3.22h.07l-.15-.46q-.32 0-.67.05l.13.44q.3-.03.62-.03"/><path fill="#ff4040" fill-rule="evenodd" d="m5.96 4.01-.32-.52-.55.33.33.52z"/><path fill="#ff4040" fill-rule="evenodd" d="m3.3 6.25-.5-.47-.53.56.54.5z"/><path fill="#ff4040" fill-rule="evenodd" d="m1.16 9.61-.8-.32-.36.9.81.32z"/></svg>