<svg xmlns="http://www.w3.org/2000/svg" viewBox="0 0 16 16"><rect width="1.88" height="3.13" x="13.55" y="5.95" fill="#ff4040" rx=".63" ry=".63" transform="rotate(-45 14.5 7.5)"/><path fill="#ff4040" d="m14.05 9.28-1.33-1.33a.6.6 0 0 0-.88 0L6.4 13.39q-.14.15-.17.35L6 15.29c-.06.4.3.76.7.7l1.55-.22a.6.6 0 0 0 .35-.17l5.44-5.44a.6.6 0 0 0 0-.88"/><path fill="#ff4040" fill-rule="evenodd" d="m12.1 3.97.03-.5a3 3 0 0 0-.68-.26l-.03.5z"/><path fill="#ff4040" fill-rule="evenodd" d="M8.83 3.22h.07l-.15-.46q-.32 0-.67.05l.13.44q.3-.03.62-.03"/><path fill="#ff4040" fill-rule="evenodd" d="m5.96 4.01-.32-.52-.55.33.33.52z"/><path fill="#ff4040" fill-rule="evenodd" d="m3.3 6.25-.5-.47-.53.56.54.5z"/><path fill="#ff4040" fill-rule="evenodd" d="m1.16 9.61-.8-.32-.36.9.81.32z"/><path fill="#ff4040" fill-rule="evenodd" d="m5.7 12.68.26-.26c-.14-1.55-.1-4.88 2.57-6.47.56-.29 2-1.14 4.28-.39l.1-.08q.28-.3.67-.4c-1.42-.9-3.33-1.74-5.33-1.53-2.06.2-4.58 2.2-6.06 4.83s-1.7 4.86-1.7 4.86h4.86q.12-.31.35-.56"/></svg>