<svg xmlns="http://www.w3.org/2000/svg" viewBox="0 0 16 16"><path fill="#ff4040" fill-rule="evenodd" d="M5 15.38v-1.26c0-.5.24-.95.6-1.24-.36-.3-.6-.75-.6-1.26v-1.24c0-.51.24-.96.6-1.26-.36-.3-.6-.74-.6-1.24V6.63C5 5.73 5.73 5 6.63 5h1.25c.5 0 .95.24 1.25.6.3-.36.74-.6 1.24-.6h1.26c.5 0 .95.24 1.24.6.3-.36.75-.6 1.26-.6h1.24q.26 0 .5.08L16 3.24c0-.4 0-.75-.1-1.15-.3-1.1-1.1-1.8-2.5-2S9.05.1 9.05.1L5.5 1.3 2.2 4.4c-.1 0-1.4 2.55-2 3.75L0 12.8c.1 3.05 2.3 3.15 3.25 3.2.2.01.9-.02 1.85-.08a2 2 0 0 1-.1-.53"/><rect width="2.5" height="2.5" x="6" y="6" fill="#ff4040" rx=".63" ry=".63"/><rect width="2.5" height="2.5" x="6" y="6" fill="#ff4040" rx=".63" ry=".63"/><rect width="2.5" height="2.5" x="6" y="9.75" fill="#ff4040" rx=".63" ry=".63"/><rect width="2.5" height="2.5" x="6" y="13.5" fill="#ff4040" rx=".63" ry=".63"/><rect width="2.5" height="2.5" x="13.5" y="6" fill="#ff4040" rx=".63" ry=".63"/><rect width="2.5" height="2.5" x="13.5" y="6" fill="#ff4040" rx=".63" ry=".63"/><rect width="2.5" height="2.5" x="13.5" y="9.75" fill="#ff4040" rx=".63" ry=".63"/><rect width="2.5" height="2.5" x="13.5" y="13.5" fill="#ff4040" rx=".63" ry=".63"/><rect width="2.5" height="2.5" x="9.75" y="6" fill="#ff4040" rx=".63" ry=".63"/><rect width="2.5" height="2.5" x="9.75" y="6" fill="#ff4040" rx=".63" ry=".63"/><rect width="2.5" height="2.5" x="9.75" y="9.75" fill="#ff4040" rx=".63" ry=".63"/><rect width="2.5" height="2.5" x="9.75" y="13.5" fill="#ff4040" rx=".63" ry=".63"/></svg>