<svg xmlns="http://www.w3.org/2000/svg" viewBox="0 0 16 16"><path fill="#ffa040" d="M6.8 13.74a5 5 0 0 1-1.32-.43q-.2-1.55-1.75-1.25l-.5-.5h1.85A2 2 0 0 1 5 11V7.25C5 6.01 6 5 7.25 5H11q.4 0 .76.14A2.1 2.1 0 0 0 9.9 4.1H3.63c.85-.95 2-1.6 3.25-1.8v-.05q1.1 1.15 2.16 0c1.8.3 3.25 1.45 4.1 2.96l-.36.65 2.61 2.61c.33-.18.8-.43.46-.66l-.65-.4v-.2c.9-.8.9-.85-.26-1.2l-.05-.2c.76-.95.7-1-.5-1.1l-.05-.2c.5-1.06.5-1.1-.7-1l-.15-.16c.35-1.15.3-1.2-.85-.9l-.15-.1c.1-1.2.05-1.25-1-.7l-.2-.1c-.1-1.15-.2-1.2-1.1-.45l-.2-.05C9.64-.11 9.54-.11 8.79.79h-.2c-.6-1.05-.66-1.05-1.2 0h-.26c-.75-.9-.8-.9-1.15.25l-.2.05c-.95-.75-1-.7-1.15.5l-.15.05c-1.05-.5-1.1-.5-1 .7l-.2.1c-1.1-.3-1.16-.25-.8.9l-.1.15c-1.2-.1-1.26-.05-.7 1l-.1.2c-1.16.1-1.2.16-.5 1.1V6c-1.16.36-1.16.46-.26 1.2v.2c-1.05.56-1.05.66 0 1.21v.2c-.95.8-.95.85.15 1.2v.2c-.7.95-.65 1 .5 1.1l.1.2c-.55 1.06-.5 1.1.7 1l.1.2c-.3 1.1-.25 1.16.86.86l.2.1c-.15 1.2-.05 1.25 1 .7l.15.1c.15 1.15.2 1.2 1.15.5h.2c.35 1.15.4 1.15 1.15.25h.25c.52.99.65 1.04 1.12.17zM2.39 9.7c-.2-.8-.3-1.65-.16-2.5l.96-.45h-.05c.35-.15.2-.6 0-.9h1V9.7z"/><path fill="#ffa040" d="m15.63 10.12-3.75-3.75A1.3 1.3 0 0 0 11 6H7.25C6.56 6 6 6.56 6 7.25V11q0 .52.37.88l3.75 3.75c.48.5 1.28.5 1.76 0l3.75-3.75c.5-.48.5-1.28 0-1.76m-6.82-.37a.94.94 0 1 1 0-1.87.94.94 0 0 1 0 1.87"/></svg>