<svg xmlns="http://www.w3.org/2000/svg" viewBox="0 0 16 16"><path fill="#ffa040" d="M5.09 11.98c-.22-.14-.6-.07-1.36.08l-.5-.5h1.8L5 11c0-1.64.66-3.13 1.73-4.21v-.9c.22.03.7-.02 1.2-.04a6 6 0 0 1 3.77-.8 2.1 2.1 0 0 0-1.81-.96H3.63c.85-.95 2-1.6 3.25-1.8v-.05q1.1 1.15 2.16 0c1.8.3 3.25 1.45 4.1 2.96l-.1.17a6 6 0 0 1 2.4 1.61c.64-.6.54-.67-.5-.98l-.05-.2c.76-.95.7-1-.5-1.1l-.05-.2c.5-1.06.5-1.1-.7-1l-.15-.16c.35-1.15.3-1.2-.85-.9l-.15-.1c.1-1.2.05-1.25-1-.7l-.2-.1c-.1-1.15-.2-1.2-1.1-.45l-.2-.05C9.64-.11 9.54-.11 8.79.79h-.2c-.6-1.05-.66-1.05-1.2 0h-.26c-.75-.9-.8-.9-1.15.25l-.2.05c-.95-.75-1-.7-1.15.5l-.15.05c-1.05-.5-1.1-.5-1 .7l-.2.1c-1.1-.3-1.16-.25-.8.9l-.1.15c-1.2-.1-1.26-.05-.7 1l-.1.2c-1.16.1-1.2.16-.5 1.1V6c-1.16.36-1.16.46-.26 1.2v.2c-1.05.56-1.05.66 0 1.21v.2c-.95.8-.95.85.15 1.2v.2c-.7.96-.65 1 .5 1.1l.1.2c-.55 1.06-.5 1.1.7 1l.1.2c-.3 1.1-.25 1.16.86.86l.2.1c-.15 1.2-.05 1.25 1 .7l.15.1c.15 1.15.2 1.2 1.15.5h.2c.32 1.07.4 1.14 1 .43a6 6 0 0 1-1.84-3.41M2.38 9.7c-.2-.8-.3-1.65-.16-2.5l.96-.45h-.05c.35-.15.2-.6 0-.9h1V9.7z"/><path fill="#ffa040" d="M11 6a5 5 0 1 0 0 10 5 5 0 0 0 0-10m0 8.13a.62.62 0 1 1 0-1.25.62.62 0 0 1 0 1.24m.63-2.5c0 .34-.29.62-.63.62s-.62-.28-.62-.62V8.5c0-.34.28-.62.62-.62s.63.28.63.62z"/></svg>