<svg xmlns="http://www.w3.org/2000/svg" viewBox="0 0 16 16"><path fill="#ff40a0" d="M5 15.38v-1.26c0-.5.24-.95.6-1.24q-.14-.12-.25-.26c-.18.5-.84 1.1-1.26 1.14.04-.42.63-1.03 1.11-1.37q-.19-.35-.2-.77v-1.24c0-.51.24-.96.6-1.26q-.25-.2-.4-.5c-.75-.58-1.44-1.2-1.41-1.93.2-2.5 6.51-5.05 8.21-4.2.76.25.6.75.25 1.4-.06.31-.46.72-1.02 1.11h.4c.5 0 .95.24 1.24.6.3-.36.75-.6 1.25-.6h.08c.5-.82.73-1.75.46-2.76-2.15-6.51-20.84 2.7-10.17 8.41-2.1.95-4.16 3.86-1.6 5.21.73.24 1.48.15 2.15-.13z"/><rect width="2.5" height="2.5" x="6" y="6" fill="#ff40a0" rx=".63" ry=".63"/><rect width="2.5" height="2.5" x="6" y="6" fill="#ff40a0" rx=".63" ry=".63"/><rect width="2.5" height="2.5" x="6" y="9.75" fill="#ff40a0" rx=".63" ry=".63"/><rect width="2.5" height="2.5" x="6" y="13.5" fill="#ff40a0" rx=".63" ry=".63"/><rect width="2.5" height="2.5" x="13.5" y="6" fill="#ff40a0" rx=".63" ry=".63"/><rect width="2.5" height="2.5" x="13.5" y="6" fill="#ff40a0" rx=".63" ry=".63"/><rect width="2.5" height="2.5" x="13.5" y="9.75" fill="#ff40a0" rx=".63" ry=".63"/><rect width="2.5" height="2.5" x="13.5" y="13.5" fill="#ff40a0" rx=".63" ry=".63"/><rect width="2.5" height="2.5" x="9.75" y="6" fill="#ff40a0" rx=".63" ry=".63"/><rect width="2.5" height="2.5" x="9.75" y="6" fill="#ff40a0" rx=".63" ry=".63"/><rect width="2.5" height="2.5" x="9.75" y="9.75" fill="#ff40a0" rx=".63" ry=".63"/><rect width="2.5" height="2.5" x="9.75" y="13.5" fill="#ff40a0" rx=".63" ry=".63"/></svg>