<svg xmlns="http://www.w3.org/2000/svg" viewBox="0 0 16 16"><path fill="#ff40a0" d="M14 3H8L6.59 1.59A2 2 0 0 0 5.17 1H2a2 2 0 0 0-2 2v10c0 1.1.9 2 2 2h3.04L5 14.57V12.8q.01-.4.2-.72-.19-.31-.2-.71v-.72q.01-.4.2-.71-.19-.31-.2-.72V7.43A2.43 2.43 0 0 1 7.43 5H9.2q.4.01.72.2.31-.19.71-.2h.72q.4.01.71.2.31-.19.72-.2h1.78q.82.02 1.43.47V5a2 2 0 0 0-2-2"/><path fill="#ff40a0" d="M6 14.57c0 .79.64 1.43 1.43 1.43v-1.07c0-.2-.16-.36-.36-.36z"/><path fill="#ff40a0" d="M7.43 6C6.64 6 6 6.64 6 7.43h1.07c.2 0 .36-.16.36-.36z"/><rect width="1.43" height="1.43" x="6" y="12.43" fill="#ff40a0" rx=".36" ry=".36"/><rect width="1.43" height="1.43" x="8.14" y="14.57" fill="#ff40a0" rx=".36" ry=".36"/><rect width="1.43" height="1.43" x="10.29" y="14.57" fill="#ff40a0" rx=".36" ry=".36"/><rect width="1.43" height="1.43" x="12.43" y="14.57" fill="#ff40a0" rx=".36" ry=".36"/><rect width="1.43" height="1.43" x="8.14" y="6" fill="#ff40a0" rx=".36" ry=".36"/><rect width="1.43" height="1.43" x="10.29" y="6" fill="#ff40a0" rx=".36" ry=".36"/><rect width="1.43" height="1.43" x="12.43" y="6" fill="#ff40a0" rx=".36" ry=".36"/><rect width="1.43" height="1.43" x="6" y="10.29" fill="#ff40a0" rx=".36" ry=".36"/><rect width="1.43" height="1.43" x="6" y="8.14" fill="#ff40a0" rx=".36" ry=".36"/><path fill="#ff40a0" d="M16 14.57c0 .79-.64 1.43-1.43 1.43v-1.07c0-.2.16-.36.36-.36z"/><path fill="#ff40a0" d="M14.57 6c.79 0 1.43.64 1.43 1.43h-1.07a.36.36 0 0 1-.36-.36z"/><rect width="1.43" height="1.43" x="14.57" y="12.43" fill="#ff40a0" rx=".36" ry=".36"/><rect width="1.43" height="1.43" x="14.57" y="10.29" fill="#ff40a0" rx=".36" ry=".36"/><rect width="1.43" height="1.43" x="14.57" y="8.14" fill="#ff40a0" rx=".36" ry=".36"/><rect width="5.71" height="5.71" x="8.14" y="8.14" fill="#ff40a0" rx=".71" ry=".71"/></svg>