<svg xmlns="http://www.w3.org/2000/svg" viewBox="0 0 16 16"><path fill="#a0a0a0" d="M0 0h3.55v1.75H1.9v12.5h1.65V16H.05V0z"/><path fill="#a0a0a0" d="M14.1 11.46v2.79h-1.65V16h3.5V9.61z"/><path fill="#a0a0a0" d="M14.1 6.4c.53-.4 1.25-.47 1.85-.2V0h-3.5v1.75h1.65z"/><path fill="#40ff40" d="M15.76 7.3a.8.8 0 0 0-1.15 0l-6.45 6.45a.4.4 0 0 1-.57 0l-3.2-3.2a.8.8 0 0 0-1.15 0 .8.8 0 0 0 0 1.15l4.06 4.06a.8.8 0 0 0 1.15 0l7.31-7.31a.8.8 0 0 0 0-1.15"/><path fill="#e0e0e0" d="m6.9 11.59.98.97 1.02-1.02V5.2h2.85V3.35h-7.7V5.2H6.9z"/></svg>