<svg xmlns="http://www.w3.org/2000/svg" viewBox="0 0 16 16"><path fill="#40a0ff" d="M5.2 12.9v-.53q-.2-.33-.2-.75v-1.25q0-.4.2-.74v-1Q5 8.28 5 7.86V6.62q0-.4.2-.75V4.6h2.9V2.73H0V4.6h2.9v8.3z"/><path fill="#40a0ff" d="M9.13 5.6c.3-.36.74-.6 1.24-.6h1.25c.61-.7 2.56-.48 3.54 0h.22l.17.02v-1.9c-1.97-.63-5.04-.74-6.26 1.27A3 3 0 0 0 9 5.47q.08.06.13.13"/><rect width="2.5" height="2.5" x="6" y="6" fill="#40a0ff" rx=".63" ry=".63"/><rect width="2.5" height="2.5" x="6" y="6" fill="#40a0ff" rx=".63" ry=".63"/><rect width="2.5" height="2.5" x="6" y="9.75" fill="#40a0ff" rx=".63" ry=".63"/><rect width="2.5" height="2.5" x="6" y="13.5" fill="#40a0ff" rx=".63" ry=".63"/><rect width="2.5" height="2.5" x="13.5" y="6" fill="#40a0ff" rx=".63" ry=".63"/><rect width="2.5" height="2.5" x="13.5" y="6" fill="#40a0ff" rx=".63" ry=".63"/><rect width="2.5" height="2.5" x="13.5" y="9.75" fill="#40a0ff" rx=".63" ry=".63"/><rect width="2.5" height="2.5" x="13.5" y="13.5" fill="#40a0ff" rx=".63" ry=".63"/><rect width="2.5" height="2.5" x="9.75" y="6" fill="#40a0ff" rx=".63" ry=".63"/><rect width="2.5" height="2.5" x="9.75" y="6" fill="#40a0ff" rx=".63" ry=".63"/><rect width="2.5" height="2.5" x="9.75" y="9.75" fill="#40a0ff" rx=".63" ry=".63"/><rect width="2.5" height="2.5" x="9.75" y="13.5" fill="#40a0ff" rx=".63" ry=".63"/></svg>