<svg xmlns="http://www.w3.org/2000/svg" viewBox="0 0 16 16"><path fill="#40a0ff" d="M4.43 12.9q.2-.82.76-1.45V4.6h2.9V2.73H0V4.6h2.9v8.3z"/><path fill="#40a0ff" d="m12.76 6.88.99 1.57c.32.51.33 1.16.04 1.7l-.14.18h1.02q.73.01 1.29.4c.13-.86-.08-1.84-.69-2.42-.62-.72-1.62-1.01-2.5-1.43"/><path fill="#40a0ff" d="M9.25 5.78a1.66 1.66 0 0 1 2.24-.56c.43-1.1 3.29-.66 4.06.02V3.12c-1.97-.63-5.04-.74-6.26 1.27q-.43.9-.28 1.78z"/><path fill="#40a0ff" d="M10.1 6.31 8.44 8.98A.67.67 0 0 0 9 10h3.33c.53 0 .85-.58.57-1.02l-1.67-2.67a.67.67 0 0 0-1.13 0"/><rect width="4.67" height="4.67" x="11.33" y="11.33" fill="#40a0ff" rx="1.33" ry="1.33"/><circle cx="7.67" cy="13.67" r="2.33" fill="#40a0ff"/></svg>