<svg xmlns="http://www.w3.org/2000/svg" viewBox="0 0 16 16"><path fill="#ff4040" d="M14 3H8L6.59 1.59A2 2 0 0 0 5.17 1H2a2 2 0 0 0-2 2v10c0 1.1.9 2 2 2h3.99V9.22L3.29 5h3.74l.63 1 .66-1h3.93L15 11.76h-.48v2.22h1.21q.26-.45.27-.98V5a2 2 0 0 0-2-2"/><path fill="#ff4040" d="M10.12 6 8.18 8.93v1.87H6.99V8.93L5.12 6h1.36l1.15 1.87L8.86 6z"/><path fill="#ff4040" d="M11.58 6h-.95l-2.05 4.76h.96l.44-1.02h2.18l.34 1.02h1.02zm.17 2.76h-1.36l.71-1.74.68 1.74z"/><path fill="#ff4040" d="M6.99 11.31V16h.98v-3.23l1.06 2.18h.81l1.09-2.25V16h.95v-4.69h-1.32L9.4 13.45l-1.12-2.14z"/><path fill="#ff4040" d="M16 14.98h-2.48v-3.67H12.5V16H16z"/></svg>