<svg xmlns="http://www.w3.org/2000/svg" viewBox="0 0 16 16"><path fill="#ff4040" d="M7.35.65 4.5 4.95V7.7H2.75V4.95L0 .65h2L3.7 3.4 5.5.65z"/><path fill="#ff4040" d="M5.6 12.88c-.36-.3-.6-.75-.6-1.26v-1.24q.01-.46.23-.82l-.58-1.11h-1.9v6.9H4.2V10.6l1.2 2.48z"/><path fill="#ff4040" d="M6.63 5h1.25c.5 0 .95.24 1.25.6.3-.36.74-.6 1.24-.6h.9L9.5.65H8.1L6.21 5.06q.2-.06.42-.06M8.8 2.15l1 2.55H7.75z"/><rect width="2.5" height="2.5" x="6" y="6" fill="#ff4040" rx=".63" ry=".63"/><rect width="2.5" height="2.5" x="6" y="6" fill="#ff4040" rx=".63" ry=".63"/><rect width="2.5" height="2.5" x="6" y="9.75" fill="#ff4040" rx=".63" ry=".63"/><rect width="2.5" height="2.5" x="6" y="13.5" fill="#ff4040" rx=".63" ry=".63"/><rect width="2.5" height="2.5" x="13.5" y="6" fill="#ff4040" rx=".63" ry=".63"/><rect width="2.5" height="2.5" x="13.5" y="6" fill="#ff4040" rx=".63" ry=".63"/><rect width="2.5" height="2.5" x="13.5" y="9.75" fill="#ff4040" rx=".63" ry=".63"/><rect width="2.5" height="2.5" x="13.5" y="13.5" fill="#ff4040" rx=".63" ry=".63"/><rect width="2.5" height="2.5" x="9.75" y="6" fill="#ff4040" rx=".63" ry=".63"/><rect width="2.5" height="2.5" x="9.75" y="6" fill="#ff4040" rx=".63" ry=".63"/><rect width="2.5" height="2.5" x="9.75" y="9.75" fill="#ff4040" rx=".63" ry=".63"/><rect width="2.5" height="2.5" x="9.75" y="13.5" fill="#ff4040" rx=".63" ry=".63"/></svg>