<svg xmlns="http://www.w3.org/2000/svg" viewBox="0 0 16 16"><path fill="#40a0ff" d="M15.1 8.12v6.82q-.02.13-.16.15H7.55l.76-.76h5.27c.41 0 .75-.34.75-.75V9.64h-.9v3.78H9.21l.74-.73h2.1a.6.6 0 0 0 .6-.61v-.93h-.9v.63h-.9l4.75-4.75c.18-.17.23-.43.13-.66s-.3-.37-.55-.37H7.06C6.48 6 6 6.48 6 7.06v6.82h.9V7.06q.02-.14.16-.15h7.39l-.76.76H8.42a.76.76 0 0 0-.75.75v3.94h.9V8.58h4.21l-.76.75H9.94a.6.6 0 0 0-.6.6v.92h.9v-.6h.87L6.4 14.96c-.17.17-.23.43-.13.66s.31.37.56.37h8.12c.58 0 1.06-.48 1.06-1.06V8.12z"/><path fill="#40a0ff" d="M5.3 14.88H5V7.07a2 2 0 0 0-1.46 1.3L2 13V7c0-1.1.9-2 2-2h11c.55 0 1-.45 1-1s-.45-1-1-1H8L6.59 1.59A2 2 0 0 0 5.17 1H2a2 2 0 0 0-2 2v10c0 1.1.9 2 2 2h3.28z"/></svg>